<svg xmlns="http://www.w3.org/2000/svg" width="512" height="512">
  <rect width="512" height="512" rx="97" fill="#5CE0CD"/>
  <g transform="scale(1)">
    <path d="
    M 180 200
    C 100 200 80 280 130 320
    C 150 340 150 350 150 360
    L 150 380
    L 110 420
    L 130 420
    L 150 400
    L 150 420
    L 170 420
    L 170 400
    L 190 420
    L 210 420
    L 170 380
    L 170 360
    C 170 340 200 310 220 280
    C 280 200 320 140 380 100
    C 400 90 410 70 390 60
    C 370 50 350 70 340 90
    C 300 140 260 180 220 230
    C 200 250 180 260 160 280
    C 140 260 120 230 140 200
    C 160 170 200 170 180 200
    Z
  " fill="#1a1a1a" fill-rule="evenodd"/>
  </g>
</svg>